<?xml version="1.0" encoding="UTF-8" standalone="no"?>
<!-- Created with Inkscape (http://www.inkscape.org/) -->

<svg
   width="1280"
   height="720"
   viewBox="0 0 1280 720"
   version="1.1"
   id="svg5"
   xml:space="preserve"
   inkscape:version="1.2.1 (9c6d41e4, 2022-07-14)"
   sodipodi:docname="bgblob.svg"
   xmlns:inkscape="http://www.inkscape.org/namespaces/inkscape"
   xmlns:sodipodi="http://sodipodi.sourceforge.net/DTD/sodipodi-0.dtd"
   xmlns:xlink="http://www.w3.org/1999/xlink"
   xmlns="http://www.w3.org/2000/svg"
   xmlns:svg="http://www.w3.org/2000/svg"><sodipodi:namedview
     id="namedview7"
     pagecolor="#ffffff"
     bordercolor="#999999"
     borderopacity="1"
     inkscape:showpageshadow="false"
     inkscape:pageopacity="0"
     inkscape:pagecheckerboard="false"
     inkscape:deskcolor="#d1d1d1"
     inkscape:document-units="px"
     showgrid="false"
     showborder="true"
     shape-rendering="auto"
     inkscape:zoom="0.53970463"
     inkscape:cx="714.27959"
     inkscape:cy="228.82887"
     inkscape:window-width="1440"
     inkscape:window-height="757"
     inkscape:window-x="0"
     inkscape:window-y="25"
     inkscape:window-maximized="0"
     inkscape:current-layer="layer1" /><defs
     id="defs2"><linearGradient
       inkscape:collect="always"
       id="linearGradient3827"><stop
         style="stop-color:#38538c;stop-opacity:1;"
         offset="0"
         id="stop3823" /><stop
         style="stop-color:#3e72cc;stop-opacity:1;"
         offset="1"
         id="stop3825" /></linearGradient><linearGradient
       inkscape:collect="always"
       xlink:href="#linearGradient3827"
       id="linearGradient3829"
       x1="0"
       y1="84.337936"
       x2="286.49197"
       y2="264.49631"
       gradientUnits="userSpaceOnUse" /><linearGradient
       inkscape:collect="always"
       xlink:href="#linearGradient3827"
       id="linearGradient6038"
       x1="570.35767"
       y1="961.63708"
       x2="690.98834"
       y2="542.15924"
       gradientUnits="userSpaceOnUse" /><linearGradient
       inkscape:collect="always"
       xlink:href="#linearGradient3827"
       id="linearGradient6046"
       x1="1504.5266"
       y1="-44.468773"
       x2="1124.6892"
       y2="170.46361"
       gradientUnits="userSpaceOnUse" /></defs><g
     inkscape:label="Layer 1"
     inkscape:groupmode="layer"
     id="layer1"><path
       d="m 201.2132,-277.63378 c 85.2,0.6 185.8,23 214.8,83.3 29,60.3 -13.6,158.699998 -32.8,245.899998 -19.2,87.300002 -15,163.400002 -59.8,196.300002 -44.9,32.9 -138.8,22.5 -204.8,55.3 -66.000012,32.7 -103.900012,108.6 -173.500012,163.4 -69.599998,54.8 -170.899998,88.5 -228.099998,50.7 -57.1,-37.9 -70.2,-147.2 -78.89999,-234.9 -8.70001,-87.7 -13,-153.7 -15.10001,-220.900002 -2,-67.1000002 -1.7,-135.5 32.7,-178.799998 34.3,-43.3 102.6,-61.5 161.8,-77.2 59.2,-15.7 109.199998,-28.7 168.999998,-45.8 59.9,-17 129.500012,-38 214.700012,-37.3"
       fill="#bb004b"
       id="path3227"
       style="fill:url(#linearGradient3829);fill-opacity:1" /><path
       d="m 1655.7125,-425.86301 c 85.2,0.6 185.8,23 214.8,83.3 29,60.3 -13.6,158.7 -32.8,245.9 -19.2,87.3000021 -15,163.400002 -59.8,196.300002 -44.9,32.899998 -138.8,22.499998 -204.8,55.299998 -66,32.7 -103.9,108.6 -173.5,163.4 -69.6,54.8 -170.9,88.5 -228.1,50.7 -57.1,-37.9 -70.2,-147.2 -78.9,-234.9 -8.7,-87.699998 -13,-153.699998 -15.1,-220.9 -2,-67.1 -1.7,-135.5 32.7,-178.8 34.3,-43.3 102.6,-61.5 161.8,-77.2 59.2,-15.7 109.2,-28.7 169,-45.8 59.9,-17 129.5,-38 214.7,-37.3"
       fill="#bb004b"
       id="path3759"
       style="fill:url(#linearGradient6046);fill-opacity:1" /><path
       d="m 791.07414,533.36329 c 85.2,0.6 185.8,23 214.79996,83.3 29,60.3 -13.59996,158.7 -32.79996,245.9 -19.2,87.3 -15,163.40001 -59.8,196.30001 -44.9,32.9 -138.8,22.5 -204.8,55.3 -66,32.7 -103.9,108.6 -173.5,163.4 -69.6,54.8 -170.9,88.5 -228.1,50.7 -57.1,-37.9 -70.2,-147.2 -78.9,-234.9 -8.7,-87.7 -13,-153.70001 -15.1,-220.90001 -2,-67.1 -1.7,-135.5 32.7,-178.8 34.3,-43.3 102.6,-61.5 161.8,-77.2 59.2,-15.7 109.2,-28.7 169,-45.8 59.9,-17 129.5,-38 214.7,-37.3"
       fill="#bb004b"
       id="path3761"
       style="fill:url(#linearGradient6038);fill-opacity:1" /></g></svg>
