<?xml version="1.0" encoding="UTF-8" standalone="no"?>
<svg
   width="24"
   height="24"
   viewBox="0 0 24 24"
   fill="none"
   stroke="#000000"
   stroke-width="2"
   stroke-linecap="round"
   stroke-linejoin="round"
   class="lucide lucide-sparkles-icon lucide-sparkles"
   version="1.1"
   id="svg5"
   sodipodi:docname="sparkles(1).svg"
   inkscape:export-filename="sparkles(1).png"
   inkscape:export-xdpi="512"
   inkscape:export-ydpi="512"
   inkscape:version="1.4.2 (ebf0e940, 2025-05-08)"
   xmlns:inkscape="http://www.inkscape.org/namespaces/inkscape"
   xmlns:sodipodi="http://sodipodi.sourceforge.net/DTD/sodipodi-0.dtd"
   xmlns="http://www.w3.org/2000/svg"
   xmlns:svg="http://www.w3.org/2000/svg">
  <defs
     id="defs5" />
  <sodipodi:namedview
     id="namedview5"
     pagecolor="#ffffff"
     bordercolor="#999999"
     borderopacity="1"
     inkscape:showpageshadow="0"
     inkscape:pageopacity="0"
     inkscape:pagecheckerboard="0"
     inkscape:deskcolor="#d1d1d1"
     inkscape:zoom="1.0833333"
     inkscape:cx="12"
     inkscape:cy="12"
     inkscape:window-width="1440"
     inkscape:window-height="757"
     inkscape:window-x="0"
     inkscape:window-y="25"
     inkscape:window-maximized="0"
     inkscape:current-layer="svg5" />
  <path
     d="M9.937 15.5A2 2 0 0 0 8.5 14.063l-6.135-1.582a.5.5 0 0 1 0-.962L8.5 9.936A2 2 0 0 0 9.937 8.5l1.582-6.135a.5.5 0 0 1 .963 0L14.063 8.5A2 2 0 0 0 15.5 9.937l6.135 1.581a.5.5 0 0 1 0 .964L15.5 14.063a2 2 0 0 0-1.437 1.437l-1.582 6.135a.5.5 0 0 1-.963 0z"
     id="path1"
     style="stroke:#01c3d9;stroke-opacity:1" />
  <path
     d="M20 3v4"
     id="path2"
     style="stroke:#01c3d9;stroke-opacity:1" />
  <path
     d="M22 5h-4"
     id="path3"
     style="stroke:#01c3d9;stroke-opacity:1" />
  <path
     d="M4 17v2"
     id="path4"
     style="stroke:#01c3d9;stroke-opacity:1" />
  <path
     d="M5 18H3"
     id="path5"
     style="stroke:#01c3d9;stroke-opacity:1" />
</svg>
