<?xml version="1.0" encoding="UTF-8" standalone="no"?>
<svg
   aria-hidden="true"
   role="img"
   width="24"
   height="24"
   viewBox="0 0 20 20"
   fill="none"
   version="1.1"
   id="svg2"
   sodipodi:docname="store.svg"
   inkscape:version="1.4.2 (ebf0e940, 2025-05-08)"
   inkscape:export-filename="store.png"
   inkscape:export-xdpi="558.54547"
   inkscape:export-ydpi="558.54547"
   xmlns:inkscape="http://www.inkscape.org/namespaces/inkscape"
   xmlns:sodipodi="http://sodipodi.sourceforge.net/DTD/sodipodi-0.dtd"
   xmlns="http://www.w3.org/2000/svg"
   xmlns:svg="http://www.w3.org/2000/svg">
  <sodipodi:namedview
     id="namedview2"
     pagecolor="#ffffff"
     bordercolor="#999999"
     borderopacity="1"
     inkscape:showpageshadow="0"
     inkscape:pageopacity="0"
     inkscape:pagecheckerboard="0"
     inkscape:deskcolor="#d1d1d1"
     showgrid="false"
     inkscape:zoom="22.291667"
     inkscape:cx="11.97757"
     inkscape:cy="12"
     inkscape:window-width="1440"
     inkscape:window-height="754"
     inkscape:window-x="0"
     inkscape:window-y="25"
     inkscape:window-maximized="0"
     inkscape:current-layer="svg2" />
  <g
     clip-path="url(#clip0_2645_182555)"
     id="g2"
     transform="matrix(1.0031017,0,0,0.99998001,-0.89466552,0.83333308)"
     style="stroke-width:0.998463;fill:#01c3d9;fill-opacity:1">
    <path
       fill-rule="evenodd"
       clip-rule="evenodd"
       d="m 13.6698,8.91016 c 0.8948,1.24654 2.6709,1.42404 3.8168,0.53267 0.0091,0.02341 0.0142,0.04908 0.0142,0.07633 v 6.31454 c 0,1.3807 -1.1193,2.5 -2.5,2.5 h -2.2916 c -0.1151,0 -0.2084,-0.0933 -0.2084,-0.2084 v -4.7916 c 0,-0.9205 -0.7461,-1.6667 -1.6666,-1.6667 H 9.16748 c -0.92049,0 -1.66668,0.7462 -1.66668,1.6667 v 4.7916 c 0,0.1151 -0.09327,0.2084 -0.20833,0.2084 H 5.0008 c -1.38071,0 -2.5,-1.1193 -2.5,-2.5 V 9.51916 c 0,-0.15575 0.16548,-0.25758 0.31011,-0.19967 0.42451,0.16984 0.89081,0.26417 1.38502,0.26417 1.07743,0 2.04792,-0.45783 2.72752,-1.18958 0.09005,-0.097 0.24659,-0.09729 0.33694,-5.9e-4 0.6844,0.73234 1.65893,1.19017 2.74041,1.19017 1.0815,0 2.056,-0.45783 2.7404,-1.19017 0.0904,-0.0967 0.247,-0.09641 0.337,5.9e-4 0.1783,0.19191 0.3766,0.36508 0.5916,0.51608 z M 11.7497,6.67891 C 9.42957,5.8204 9.4179,2.5511 11.7147,1.6683 11.699,1.66743 11.6833,1.66699 11.6675,1.66699 H 8.33415 c -0.46024,0 -0.83333,0.3731 -0.83333,0.83334 v 3.33333 c 0,0.04315 0.00109,0.08604 0.00325,0.12865 0.01774,0.35001 0.10746,0.68102 0.25466,0.97854 0.01409,0.02846 0.0287,0.05662 0.04382,0.08446 0.42335,0.77931 1.24902,1.30835 2.19825,1.30835 0.9832,0 1.8338,-0.56752 2.2421,-1.39282 l 0.0114,-0.02333 c 0.007,-0.01465 0.0139,-0.02939 0.0208,-0.0442 z M 15.8231,8.3336 C 15.4338,8.32949 15.0467,8.10931 14.8853,7.67305 L 14.4606,6.52524 C 14.2917,6.06904 13.9321,5.70936 13.4759,5.54055 L 13.3342,5.4881 V 2.84588 l 0.1417,-0.05245 c 0.4562,-0.1688 0.8158,-0.52849 0.9847,-0.98469 l 0.0525,-0.14175 h 0.7331 c 1.0935,0 2.06,0.71063 2.3862,1.75432 l 0.5323,1.7036 c 0.041,0.13107 0.0705,0.26233 0.0893,0.39284 l -0.0616,0.0228 C 17.7361,5.70936 17.3765,6.06904 17.2077,6.52524 L 16.783,7.67305 c -0.156,0.42153 -0.5227,0.64133 -0.8983,0.6594 -0.0205,6.3e-4 -0.041,0.00101 -0.0616,0.00115 z M 12.5008,3.15424 v 2.0255 L 12.3281,5.11583 c -0.8809,-0.32594 -0.8809,-1.57174 0,-1.89767 z M 4.75546,1.66699 c -1.09346,0 -2.06005,0.71063 -2.3862,1.75431 L 1.83688,5.12491 c -0.30812,0.98601 0.03102,1.98189 0.7302,2.59696 0.42935,0.3777 0.99448,0.61179 1.62885,0.61179 0.93844,0 1.75472,-0.52302 2.17324,-1.29347 C 6.38619,7.00888 6.40255,6.97714 6.41823,6.94502 6.57788,6.618 6.66748,6.25052 6.66748,5.86211 V 2.50033 c 0,-0.46024 -0.3731,-0.83334 -0.83333,-0.83334 z"
       fill="currentColor"
       id="path1"
       style="stroke-width:0.998463;fill:#01c3d9;fill-opacity:1" />
    <path
       d="m 14.8838,0.660607 c 0.3259,-0.880809 1.5718,-0.880809 1.8977,0 l 0.4247,1.147813 c 0.1688,0.4562 0.5285,0.81588 0.9847,0.98469 l 1.1478,0.42472 c 0.8808,0.32594 0.8808,1.57174 0,1.89767 l -1.1478,0.42473 c -0.4562,0.1688 -0.8159,0.52849 -0.9847,0.98469 l -0.4247,1.1478 c -0.3259,0.88078 -1.5718,0.88078 -1.8977,0 L 14.4591,6.52492 C 14.2903,6.06872 13.9306,5.70903 13.4744,5.54023 L 12.3266,5.1155 c -0.8808,-0.32593 -0.8808,-1.57173 0,-1.89767 L 13.4744,2.79311 C 13.9306,2.6243 14.2903,2.26462 14.4591,1.80842 Z"
       fill="currentColor"
       id="path2"
       style="stroke-width:0.998463;fill:#01c3d9;fill-opacity:1" />
  </g>
  <defs
     id="defs2">
    <clipPath
       id="clip0_2645_182555">
      <rect
         width="20"
         height="20"
         fill="white"
         id="rect2" />
    </clipPath>
  </defs>
</svg>
