<?xml version="1.0" encoding="UTF-8" standalone="no"?>
<!-- Created with Inkscape (http://www.inkscape.org/) -->

<svg
   width="24"
   height="24"
   viewBox="0 0 24 24"
   version="1.1"
   id="svg5"
   inkscape:version="1.2.1 (9c6d41e4, 2022-07-14)"
   xml:space="preserve"
   sodipodi:docname="voice.svg"
   xmlns:inkscape="http://www.inkscape.org/namespaces/inkscape"
   xmlns:sodipodi="http://sodipodi.sourceforge.net/DTD/sodipodi-0.dtd"
   xmlns="http://www.w3.org/2000/svg"
   xmlns:svg="http://www.w3.org/2000/svg"><sodipodi:namedview
     id="namedview7"
     pagecolor="#ffffff"
     bordercolor="#999999"
     borderopacity="1"
     inkscape:showpageshadow="0"
     inkscape:pageopacity="0"
     inkscape:pagecheckerboard="0"
     inkscape:deskcolor="#d1d1d1"
     inkscape:document-units="px"
     showgrid="true"
     inkscape:zoom="19.677777"
     inkscape:cx="10.290797"
     inkscape:cy="13.187465"
     inkscape:window-width="1440"
     inkscape:window-height="757"
     inkscape:window-x="0"
     inkscape:window-y="25"
     inkscape:window-maximized="0"
     inkscape:current-layer="g23523"><inkscape:grid
       type="xygrid"
       id="grid4955"
       empspacing="4" /></sodipodi:namedview><defs
     id="defs2" /><g
     inkscape:label="Layer 1"
     inkscape:groupmode="layer"
     id="layer1"><g
       style="fill:none"
       id="g19637"><g
         id="g23523"><path
           id="path23485"
           style="fill:none;stroke:#000000;stroke-width:2;stroke-linecap:round;stroke-linejoin:round;stroke-dasharray:none;stroke-opacity:1"
           d="M 15.005529,8.5390968 A 4,4 0 0 1 17,12 v 0 a 4,4 0 0 1 -1.993389,3.460276" /><path
           id="path23480"
           style="fill:none;stroke:#000000;stroke-width:2;stroke-linecap:round;stroke-linejoin:round;stroke-dasharray:none;stroke-opacity:1"
           d="M 15.000318,4.2541153 A 8,8 0 0 1 21,12 v 0 a 8,8 0 0 1 -5.998121,7.745481"
           inkscape:label="path23480" /><path
           fill="currentColor"
           d="m 12.08,3 c 0,-0.5522847 -0.447715,-1 -1,-1 H 11.02 C 10.739358,1.9981 10.470834,2.1142192 10.28,2.32 L 6,7 H 3.08 c -0.5522847,0 -1,0.4477153 -1,1 v 8 c 0,0.552285 0.4477153,1 1,1 H 6 l 4.28,4.68 c 0.190834,0.205781 0.459358,0.321899 0.74,0.32 h 0.06 c 0.552285,0 1,-0.447715 1,-1 z"
           class=""
           id="path23488"
           style="fill:#000000;fill-opacity:0.996454"
           sodipodi:nodetypes="sscccsssscccsss" /></g></g></g></svg>
