<?xml version="1.0" encoding="UTF-8" standalone="no"?>
<!-- Created with Inkscape (http://www.inkscape.org/) -->

<svg
   width="1200"
   height="630"
   viewBox="0 0 1200 630"
   version="1.1"
   id="svg5"
   inkscape:version="1.4.2 (ebf0e940, 2025-05-08)"
   xml:space="preserve"
   sodipodi:docname="og.svg"
   xmlns:inkscape="http://www.inkscape.org/namespaces/inkscape"
   xmlns:sodipodi="http://sodipodi.sourceforge.net/DTD/sodipodi-0.dtd"
   xmlns:xlink="http://www.w3.org/1999/xlink"
   xmlns="http://www.w3.org/2000/svg"
   xmlns:svg="http://www.w3.org/2000/svg"><sodipodi:namedview
     id="namedview7"
     pagecolor="#ffffff"
     bordercolor="#999999"
     borderopacity="1"
     inkscape:showpageshadow="0"
     inkscape:pageopacity="0"
     inkscape:pagecheckerboard="0"
     inkscape:deskcolor="#d1d1d1"
     inkscape:document-units="px"
     showgrid="false"
     inkscape:zoom="0.4474384"
     inkscape:cx="510.68482"
     inkscape:cy="383.29299"
     inkscape:window-width="1440"
     inkscape:window-height="750"
     inkscape:window-x="0"
     inkscape:window-y="25"
     inkscape:window-maximized="0"
     inkscape:current-layer="svg5" /><defs
     id="defs2"><linearGradient
       id="linearGradient272"
       inkscape:collect="always"><stop
         style="stop-color:#334155;stop-opacity:0.60000002;"
         offset="0"
         id="stop272" /><stop
         style="stop-color:#334155;stop-opacity:0;"
         offset="1"
         id="stop273" /></linearGradient><radialGradient
       inkscape:collect="always"
       xlink:href="#linearGradient272"
       id="radialGradient273"
       cx="600"
       cy="315"
       fx="600"
       fy="315"
       r="600"
       gradientTransform="matrix(1,0,0,0.525,0,149.625)"
       gradientUnits="userSpaceOnUse" /><linearGradient
       id="b">
      <stop
   offset="0"
   style="stop-color:#3e72cc;stop-opacity:1"
   id="stop1" />
      <stop
   offset="1"
   style="stop-color:#325699;stop-opacity:1"
   id="stop2" />
    </linearGradient><linearGradient
       id="c">
      <stop
   offset="0"
   style="stop-color:#3e65b2;stop-opacity:1"
   id="stop3" />
      <stop
   offset="1"
   style="stop-color:#38538c;stop-opacity:1"
   id="stop4" />
    </linearGradient><linearGradient
       id="e">
      <stop
   offset="0"
   style="stop-color:#55f6be;stop-opacity:1"
   id="stop5" />
      <stop
   offset="1"
   style="stop-color:#42e0f0;stop-opacity:1"
   id="stop6" />
    </linearGradient><linearGradient
       id="a">
      <stop
   offset="0"
   style="stop-color:#4783eb;stop-opacity:1"
   id="stop7" />
      <stop
   offset="1"
   style="stop-color:#335699;stop-opacity:1"
   id="stop8" />
    </linearGradient><linearGradient
       id="d">
      <stop
   offset="0"
   style="stop-color:#81ffd3;stop-opacity:1"
   id="stop9" />
      <stop
   offset="1"
   style="stop-color:#3de4f5;stop-opacity:1"
   id="stop10" />
    </linearGradient><linearGradient
       xlink:href="#a"
       id="g"
       x1="718.11"
       x2="718.11"
       y1="1697.01"
       y2="2740.16"
       gradientUnits="userSpaceOnUse" /><linearGradient
       xlink:href="#b"
       id="f"
       x1="718.11"
       x2="718.11"
       y1="1697.01"
       y2="2740.16"
       gradientUnits="userSpaceOnUse" /><linearGradient
       xlink:href="#c"
       id="i"
       x1="-340.157"
       x2="-340.157"
       y1="2074.96"
       y2="3269.29"
       gradientTransform="matrix(0.0232,0,0,0.0232,157.5,21.039)"
       gradientUnits="userSpaceOnUse" /><linearGradient
       xlink:href="#d"
       id="k"
       x1="0"
       x2="0"
       y1="-170.079"
       y2="2415.12"
       gradientUnits="userSpaceOnUse" /><linearGradient
       xlink:href="#e"
       id="j"
       x1="0"
       x2="0"
       y1="-170.079"
       y2="2415.12"
       gradientUnits="userSpaceOnUse" /><linearGradient
       inkscape:collect="always"
       xlink:href="#a"
       id="linearGradient273"
       gradientUnits="userSpaceOnUse"
       x1="718.11"
       y1="1697.01"
       x2="718.11"
       y2="2740.16" /><linearGradient
       inkscape:collect="always"
       xlink:href="#d"
       id="linearGradient274"
       gradientUnits="userSpaceOnUse"
       x1="0"
       y1="-170.079"
       x2="0"
       y2="2415.12" /><linearGradient
       inkscape:collect="always"
       xlink:href="#d"
       id="linearGradient275"
       gradientUnits="userSpaceOnUse"
       x1="0"
       y1="-170.079"
       x2="0"
       y2="2415.12" /><linearGradient
       inkscape:collect="always"
       xlink:href="#d"
       id="linearGradient277"
       x1="567.83484"
       y1="411.11523"
       x2="567.83484"
       y2="476.77914"
       gradientUnits="userSpaceOnUse"
       gradientTransform="translate(15.971337,8.3044306)" /></defs><rect
     style="display:inline;fill:#0f172a;fill-opacity:1;stroke:#c6d0f5;stroke-linecap:round;stroke-linejoin:round"
     id="rect61"
     width="1200"
     height="630"
     x="0"
     y="0" /><path
     id="use272"
     style="fill:url(#radialGradient273);fill-rule:evenodd;stroke:none;stroke-width:0.999994;fill-opacity:1"
     d="m 965.625,506.95312 h 34.29878 v 16.0496 H 965.625 Z m 80.0305,21.39946 h 34.2988 v 16.04959 h -34.2988 z m 40.0152,-21.39946 h 34.2988 v 16.0496 h -34.2988 z m 40.0153,0 h 34.2988 v 16.0496 h -34.2988 z m 0,21.39946 h 34.2988 v 16.04959 h -34.2988 z m -40.0153,0 h 34.2988 v 16.04959 h -34.2988 z m 0,42.79891 h 34.2988 v 16.0496 h -34.2988 z m 40.0153,-21.39945 h 34.2988 v 16.04959 h -34.2988 z m 40.0152,0 H 1200 v 16.04959 h -34.2988 z m 0,-42.79892 H 1200 v 16.0496 h -34.2988 z m -120.0457,85.59783 h 34.2988 v 16.04959 h -34.2988 z m -40.0153,-42.79891 h 34.2988 v 16.04959 h -34.2988 z m -40.0152,21.39945 h 34.29878 v 16.0496 H 965.625 Z m 0,21.39946 h 34.29878 v 16.04959 H 965.625 Z m 40.0152,0 h 34.2988 v 16.04959 h -34.2988 z m 40.0153,21.39946 h 34.2988 V 630 h -34.2988 z m -40.0153,0 h 34.2988 V 630 h -34.2988 z m 80.0305,0 h 34.2988 V 630 h -34.2988 z m 40.0153,-21.39946 h 34.2988 v 16.04959 h -34.2988 z m 0,-21.39946 h 34.2988 v 16.0496 h -34.2988 z m 40.0152,21.39946 H 1200 v 16.04959 h -34.2988 z m 0,21.39946 H 1200 V 630 h -34.2988 z m -160.061,-42.79892 h 34.2988 v 16.0496 h -34.2988 z m 40.0153,-21.39945 h 34.2988 v 16.04959 h -34.2988 z m -40.0153,-21.39946 h 34.2988 v 16.04959 h -34.2988 z m -40.0152,0 h 34.29878 v 16.04959 H 965.625 Z m 0,-148.13774 h 34.29878 v 16.0496 H 965.625 Z m 80.0305,21.39946 h 34.2988 v 16.04959 h -34.2988 z m 40.0152,-21.39946 h 34.2988 v 16.0496 h -34.2988 z m 40.0153,0 h 34.2988 v 16.0496 h -34.2988 z m 0,21.39946 h 34.2988 v 16.04959 h -34.2988 z m -40.0153,0 h 34.2988 v 16.04959 h -34.2988 z m 0,42.79891 h 34.2988 v 16.04959 h -34.2988 z m 40.0153,-21.39945 h 34.2988 v 16.04959 h -34.2988 z m 40.0152,0 H 1200 v 16.04959 h -34.2988 z m 0,-42.79892 H 1200 v 16.0496 h -34.2988 z m -120.0457,85.59783 h 34.2988 v 16.04959 h -34.2988 z m -40.0153,-42.79891 h 34.2988 v 16.04959 h -34.2988 z m -40.0152,21.39945 h 34.29878 V 460.4628 H 965.625 Z m 0,21.39946 h 34.29878 v 16.04959 H 965.625 Z m 40.0152,0 h 34.2988 v 16.04959 h -34.2988 z m 40.0153,21.39946 h 34.2988 v 16.04959 h -34.2988 z m -40.0153,0 h 34.2988 v 16.04959 h -34.2988 z m 80.0305,0 h 34.2988 v 16.04959 h -34.2988 z m 40.0153,-21.39946 h 34.2988 v 16.04959 h -34.2988 z m 0,-21.39946 h 34.2988 v 16.04959 h -34.2988 z m 40.0152,21.39946 H 1200 v 16.04959 h -34.2988 z m 0,21.39946 H 1200 v 16.04959 h -34.2988 z m -160.061,-42.79892 h 34.2988 v 16.04959 h -34.2988 z m 40.0153,-21.39945 h 34.2988 v 16.04959 h -34.2988 z m -40.0153,-21.39946 h 34.2988 v 16.04959 h -34.2988 z m -40.0152,0 h 34.29878 v 16.04959 H 965.625 Z m 0,-148.13774 h 34.29878 v 16.04959 H 965.625 Z m 80.0305,21.39946 h 34.2988 v 16.04959 h -34.2988 z m 40.0152,-21.39946 h 34.2988 v 16.04959 h -34.2988 z m 40.0153,0 h 34.2988 v 16.04959 h -34.2988 z m 0,21.39946 h 34.2988 v 16.04959 h -34.2988 z m -40.0153,0 h 34.2988 v 16.04959 h -34.2988 z m 0,42.79891 h 34.2988 v 16.04959 h -34.2988 z m 40.0153,-21.39946 h 34.2988 v 16.0496 h -34.2988 z m 40.0152,0 H 1200 v 16.0496 h -34.2988 z m 0,-42.79891 H 1200 v 16.04959 h -34.2988 z m -120.0457,85.59783 h 34.2988 v 16.04959 h -34.2988 z m -40.0153,-42.79892 h 34.2988 v 16.0496 h -34.2988 z m -40.0152,21.39946 h 34.29878 v 16.04959 H 965.625 Z m 0,21.39946 h 34.29878 v 16.04959 H 965.625 Z m 40.0152,0 h 34.2988 v 16.04959 h -34.2988 z m 40.0153,21.39945 h 34.2988 v 16.0496 h -34.2988 z m -40.0153,0 h 34.2988 v 16.0496 h -34.2988 z m 80.0305,0 h 34.2988 v 16.0496 h -34.2988 z m 40.0153,-21.39945 h 34.2988 v 16.04959 h -34.2988 z m 0,-21.39946 h 34.2988 v 16.04959 h -34.2988 z m 40.0152,21.39946 H 1200 v 16.04959 h -34.2988 z m 0,21.39945 H 1200 v 16.0496 h -34.2988 z m -160.061,-42.79891 h 34.2988 v 16.04959 h -34.2988 z m 40.0153,-21.39946 h 34.2988 v 16.0496 h -34.2988 z m -40.0153,-21.39945 h 34.2988 v 16.04959 h -34.2988 z m -40.0152,0 h 34.29878 v 16.04959 H 965.625 Z m 0,-148.13774 h 34.29878 v 16.04959 H 965.625 Z m 80.0305,21.39946 h 34.2988 v 16.04959 h -34.2988 z m 40.0152,-21.39946 h 34.2988 v 16.04959 h -34.2988 z m 40.0153,0 h 34.2988 v 16.04959 h -34.2988 z m 0,21.39946 h 34.2988 v 16.04959 h -34.2988 z m -40.0153,0 h 34.2988 v 16.04959 h -34.2988 z m 0,42.79891 h 34.2988 v 16.04959 h -34.2988 z m 40.0153,-21.39946 h 34.2988 v 16.0496 h -34.2988 z m 40.0152,0 H 1200 v 16.0496 h -34.2988 z m 0,-42.79891 H 1200 v 16.04959 h -34.2988 z m -120.0457,85.59783 h 34.2988 v 16.04959 h -34.2988 z m -40.0153,-42.79892 h 34.2988 v 16.0496 h -34.2988 z m -40.0152,21.39946 h 34.29878 v 16.04959 H 965.625 Z m 0,21.39946 h 34.29878 V 228.3857 H 965.625 Z m 40.0152,0 h 34.2988 v 16.04959 h -34.2988 z m 40.0153,21.39945 h 34.2988 v 16.0496 h -34.2988 z m -40.0153,0 h 34.2988 v 16.0496 h -34.2988 z m 80.0305,0 h 34.2988 v 16.0496 h -34.2988 z m 40.0153,-21.39945 h 34.2988 v 16.04959 h -34.2988 z m 0,-21.39946 h 34.2988 v 16.04959 h -34.2988 z m 40.0152,21.39946 H 1200 v 16.04959 h -34.2988 z m 0,21.39945 H 1200 v 16.0496 h -34.2988 z m -160.061,-42.79891 h 34.2988 v 16.04959 h -34.2988 z m 40.0153,-21.39946 h 34.2988 v 16.0496 h -34.2988 z m -40.0153,-21.39945 h 34.2988 v 16.04959 h -34.2988 z m -40.0152,0 h 34.29878 v 16.04959 H 965.625 Z M 965.625,0 h 34.29878 V 16.049592 H 965.625 Z m 80.0305,21.399456 h 34.2988 v 16.049593 h -34.2988 z M 1085.6707,0 h 34.2988 v 16.049592 h -34.2988 z m 40.0153,0 h 34.2988 v 16.049592 h -34.2988 z m 0,21.399456 h 34.2988 v 16.049593 h -34.2988 z m -40.0153,0 h 34.2988 v 16.049593 h -34.2988 z m 0,42.798913 h 34.2988 v 16.049593 h -34.2988 z m 40.0153,-21.399456 h 34.2988 v 16.049592 h -34.2988 z m 40.0152,0 H 1200 v 16.049592 h -34.2988 z M 1165.7012,0 H 1200 v 16.049592 h -34.2988 z m -120.0457,85.597826 h 34.2988 v 16.049594 h -34.2988 z m -40.0153,-42.798913 h 34.2988 v 16.049592 h -34.2988 z M 965.625,64.198369 h 34.29878 V 80.247962 H 965.625 Z m 0,21.399457 h 34.29878 V 101.64742 H 965.625 Z m 40.0152,0 h 34.2988 v 16.049594 h -34.2988 z m 40.0153,21.399454 h 34.2988 v 16.04959 h -34.2988 z m -40.0153,0 h 34.2988 v 16.04959 h -34.2988 z m 80.0305,0 h 34.2988 v 16.04959 h -34.2988 z m 40.0153,-21.399454 h 34.2988 v 16.049594 h -34.2988 z m 0,-21.399457 h 34.2988 v 16.049593 h -34.2988 z m 40.0152,21.399457 H 1200 v 16.049594 h -34.2988 z m 0,21.399454 H 1200 v 16.04959 h -34.2988 z m -160.061,-42.798911 h 34.2988 v 16.049593 h -34.2988 z m 40.0153,-21.399456 h 34.2988 v 16.049592 h -34.2988 z m -40.0153,-21.399457 h 34.2988 v 16.049593 h -34.2988 z m -40.0152,0 h 34.29878 V 37.449049 H 965.625 Z M 724.21875,506.95312 h 34.29878 v 16.0496 h -34.29878 z m 80.03049,21.39946 h 34.29878 v 16.04959 h -34.29878 z m 40.01524,-21.39946 h 34.29878 v 16.0496 h -34.29878 z m 40.01524,0 h 34.29878 v 16.0496 h -34.29878 z m 0,21.39946 h 34.29878 v 16.04959 h -34.29878 z m -40.01524,0 h 34.29878 v 16.04959 h -34.29878 z m 0,42.79891 h 34.29878 v 16.0496 h -34.29878 z m 40.01524,-21.39945 h 34.29878 v 16.04959 h -34.29878 z m 40.01525,0 h 34.29878 v 16.04959 h -34.29878 z m 0,-42.79892 h 34.29878 v 16.0496 h -34.29878 z m -120.04573,85.59783 h 34.29878 v 16.04959 h -34.29878 z m -40.01525,-42.79891 h 34.29878 v 16.04959 h -34.29878 z m -40.01524,21.39945 h 34.29878 v 16.0496 h -34.29878 z m 0,21.39946 h 34.29878 v 16.04959 h -34.29878 z m 40.01524,0 h 34.29878 v 16.04959 h -34.29878 z m 40.01525,21.39946 h 34.29878 V 630 h -34.29878 z m -40.01525,0 h 34.29878 V 630 h -34.29878 z m 80.03049,0 h 34.29878 V 630 h -34.29878 z m 40.01524,-21.39946 h 34.29878 v 16.04959 h -34.29878 z m 0,-21.39946 h 34.29878 v 16.0496 h -34.29878 z m 40.01525,21.39946 h 34.29878 v 16.04959 h -34.29878 z m 0,21.39946 h 34.29878 V 630 H 924.29497 Z M 764.23399,571.15149 h 34.29878 v 16.0496 h -34.29878 z m 40.01525,-21.39945 h 34.29878 v 16.04959 h -34.29878 z m -40.01525,-21.39946 h 34.29878 v 16.04959 h -34.29878 z m -40.01524,0 h 34.29878 v 16.04959 h -34.29878 z m 0,-148.13774 h 34.29878 v 16.0496 h -34.29878 z m 80.03049,21.39946 h 34.29878 v 16.04959 h -34.29878 z m 40.01524,-21.39946 h 34.29878 v 16.0496 h -34.29878 z m 40.01524,0 h 34.29878 v 16.0496 h -34.29878 z m 0,21.39946 h 34.29878 v 16.04959 h -34.29878 z m -40.01524,0 h 34.29878 v 16.04959 h -34.29878 z m 0,42.79891 h 34.29878 v 16.04959 h -34.29878 z m 40.01524,-21.39945 h 34.29878 v 16.04959 h -34.29878 z m 40.01525,0 h 34.29878 v 16.04959 h -34.29878 z m 0,-42.79892 h 34.29878 v 16.0496 h -34.29878 z m -120.04573,85.59783 h 34.29878 v 16.04959 h -34.29878 z m -40.01525,-42.79891 h 34.29878 v 16.04959 h -34.29878 z m -40.01524,21.39945 h 34.29878 v 16.04959 h -34.29878 z m 0,21.39946 h 34.29878 v 16.04959 h -34.29878 z m 40.01524,0 h 34.29878 v 16.04959 h -34.29878 z m 40.01525,21.39946 h 34.29878 v 16.04959 h -34.29878 z m -40.01525,0 h 34.29878 v 16.04959 h -34.29878 z m 80.03049,0 h 34.29878 v 16.04959 h -34.29878 z m 40.01524,-21.39946 h 34.29878 v 16.04959 h -34.29878 z m 0,-21.39946 h 34.29878 v 16.04959 h -34.29878 z m 40.01525,21.39946 h 34.29878 v 16.04959 h -34.29878 z m 0,21.39946 h 34.29878 v 16.04959 H 924.29497 Z M 764.23399,444.41321 h 34.29878 v 16.04959 h -34.29878 z m 40.01525,-21.39945 h 34.29878 v 16.04959 H 804.24924 Z M 764.23399,401.6143 h 34.29878 v 16.04959 h -34.29878 z m -40.01524,0 h 34.29878 v 16.04959 h -34.29878 z m 0,-148.13774 h 34.29878 v 16.04959 h -34.29878 z m 80.03049,21.39946 h 34.29878 v 16.04959 h -34.29878 z m 40.01524,-21.39946 h 34.29878 v 16.04959 h -34.29878 z m 40.01524,0 h 34.29878 v 16.04959 h -34.29878 z m 0,21.39946 h 34.29878 v 16.04959 h -34.29878 z m -40.01524,0 h 34.29878 v 16.04959 h -34.29878 z m 0,42.79891 h 34.29878 v 16.04959 h -34.29878 z m 40.01524,-21.39946 h 34.29878 v 16.0496 h -34.29878 z m 40.01525,0 h 34.29878 v 16.0496 h -34.29878 z m 0,-42.79891 h 34.29878 v 16.04959 h -34.29878 z m -120.04573,85.59783 h 34.29878 v 16.04959 h -34.29878 z m -40.01525,-42.79892 h 34.29878 v 16.0496 h -34.29878 z m -40.01524,21.39946 h 34.29878 v 16.04959 h -34.29878 z m 0,21.39946 h 34.29878 v 16.04959 h -34.29878 z m 40.01524,0 h 34.29878 v 16.04959 h -34.29878 z m 40.01525,21.39945 h 34.29878 v 16.0496 h -34.29878 z m -40.01525,0 h 34.29878 v 16.0496 h -34.29878 z m 80.03049,0 h 34.29878 v 16.0496 h -34.29878 z m 40.01524,-21.39945 h 34.29878 v 16.04959 h -34.29878 z m 0,-21.39946 h 34.29878 v 16.04959 h -34.29878 z m 40.01525,21.39946 h 34.29878 v 16.04959 h -34.29878 z m 0,21.39945 h 34.29878 v 16.0496 H 924.29497 Z M 764.23399,317.67493 h 34.29878 v 16.04959 h -34.29878 z m 40.01525,-21.39946 h 34.29878 v 16.0496 h -34.29878 z m -40.01525,-21.39945 h 34.29878 v 16.04959 h -34.29878 z m -40.01524,0 h 34.29878 v 16.04959 h -34.29878 z m 0,-148.13774 h 34.29878 v 16.04959 h -34.29878 z m 80.03049,21.39946 h 34.29878 v 16.04959 h -34.29878 z m 40.01524,-21.39946 h 34.29878 v 16.04959 h -34.29878 z m 40.01524,0 h 34.29878 v 16.04959 h -34.29878 z m 0,21.39946 h 34.29878 v 16.04959 h -34.29878 z m -40.01524,0 h 34.29878 v 16.04959 h -34.29878 z m 0,42.79891 h 34.29878 v 16.04959 h -34.29878 z m 40.01524,-21.39946 h 34.29878 v 16.0496 h -34.29878 z m 40.01525,0 h 34.29878 v 16.0496 h -34.29878 z m 0,-42.79891 h 34.29878 v 16.04959 h -34.29878 z m -120.04573,85.59783 h 34.29878 v 16.04959 h -34.29878 z m -40.01525,-42.79892 h 34.29878 v 16.0496 h -34.29878 z m -40.01524,21.39946 h 34.29878 v 16.04959 h -34.29878 z m 0,21.39946 h 34.29878 v 16.04959 h -34.29878 z m 40.01524,0 h 34.29878 v 16.04959 h -34.29878 z m 40.01525,21.39945 h 34.29878 v 16.0496 h -34.29878 z m -40.01525,0 h 34.29878 v 16.0496 h -34.29878 z m 80.03049,0 h 34.29878 v 16.0496 h -34.29878 z m 40.01524,-21.39945 h 34.29878 v 16.04959 h -34.29878 z m 0,-21.39946 h 34.29878 v 16.04959 h -34.29878 z m 40.01525,21.39946 h 34.29878 v 16.04959 h -34.29878 z m 0,21.39945 h 34.29878 v 16.0496 H 924.29497 Z M 764.23399,190.93665 h 34.29878 v 16.04959 h -34.29878 z m 40.01525,-21.39946 h 34.29878 v 16.0496 h -34.29878 z m -40.01525,-21.39945 h 34.29878 v 16.04959 h -34.29878 z m -40.01524,0 h 34.29878 v 16.04959 H 724.21875 Z M 724.21875,0 h 34.29878 v 16.049592 h -34.29878 z m 80.03049,21.399456 h 34.29878 V 37.449049 H 804.24924 Z M 844.26448,0 h 34.29878 v 16.049592 h -34.29878 z m 40.01524,0 h 34.29878 v 16.049592 h -34.29878 z m 0,21.399456 h 34.29878 v 16.049593 h -34.29878 z m -40.01524,0 h 34.29878 v 16.049593 h -34.29878 z m 0,42.798913 h 34.29878 v 16.049593 h -34.29878 z m 40.01524,-21.399456 h 34.29878 v 16.049592 h -34.29878 z m 40.01525,0 h 34.29878 V 58.848505 H 924.29497 Z M 924.29497,0 h 34.29878 V 16.049592 H 924.29497 Z M 804.24924,85.597826 h 34.29878 V 101.64742 H 804.24924 Z M 764.23399,42.798913 h 34.29878 v 16.049592 h -34.29878 z m -40.01524,21.399456 h 34.29878 v 16.049593 h -34.29878 z m 0,21.399457 h 34.29878 v 16.049594 h -34.29878 z m 40.01524,0 h 34.29878 v 16.049594 h -34.29878 z m 40.01525,21.399454 h 34.29878 v 16.04959 h -34.29878 z m -40.01525,0 h 34.29878 v 16.04959 h -34.29878 z m 80.03049,0 h 34.29878 v 16.04959 h -34.29878 z m 40.01524,-21.399454 h 34.29878 v 16.049594 h -34.29878 z m 0,-21.399457 h 34.29878 v 16.049593 h -34.29878 z m 40.01525,21.399457 h 34.29878 v 16.049594 h -34.29878 z m 0,21.399454 h 34.29878 v 16.04959 H 924.29497 Z M 764.23399,64.198369 h 34.29878 v 16.049593 h -34.29878 z m 40.01525,-21.399456 h 34.29878 V 58.848505 H 804.24924 Z M 764.23399,21.399456 h 34.29878 v 16.049593 h -34.29878 z m -40.01524,0 h 34.29878 V 37.449049 H 724.21875 Z M 482.8125,506.95312 h 34.29878 v 16.0496 H 482.8125 Z m 80.03049,21.39946 h 34.29878 v 16.04959 h -34.29878 z m 40.01524,-21.39946 h 34.29878 v 16.0496 h -34.29878 z m 40.01524,0 h 34.29878 v 16.0496 h -34.29878 z m 0,21.39946 h 34.29878 v 16.04959 h -34.29878 z m -40.01524,0 h 34.29878 v 16.04959 h -34.29878 z m 0,42.79891 h 34.29878 v 16.0496 h -34.29878 z m 40.01524,-21.39945 h 34.29878 v 16.04959 h -34.29878 z m 40.01525,0 h 34.29878 v 16.04959 h -34.29878 z m 0,-42.79892 h 34.29878 v 16.0496 h -34.29878 z m -120.04573,85.59783 h 34.29878 v 16.04959 h -34.29878 z m -40.01525,-42.79891 h 34.29878 v 16.04959 h -34.29878 z m -40.01524,21.39945 h 34.29878 v 16.0496 H 482.8125 Z m 0,21.39946 h 34.29878 v 16.04959 H 482.8125 Z m 40.01524,0 h 34.29878 v 16.04959 h -34.29878 z m 40.01525,21.39946 h 34.29878 V 630 h -34.29878 z m -40.01525,0 h 34.29878 V 630 h -34.29878 z m 80.03049,0 h 34.29878 V 630 h -34.29878 z m 40.01524,-21.39946 h 34.29878 v 16.04959 h -34.29878 z m 0,-21.39946 h 34.29878 v 16.0496 h -34.29878 z m 40.01525,21.39946 h 34.29878 v 16.04959 h -34.29878 z m 0,21.39946 H 717.1875 V 630 H 682.88872 Z M 522.82774,571.15149 h 34.29878 v 16.0496 h -34.29878 z m 40.01525,-21.39945 h 34.29878 v 16.04959 h -34.29878 z m -40.01525,-21.39946 h 34.29878 v 16.04959 h -34.29878 z m -40.01524,0 h 34.29878 v 16.04959 H 482.8125 Z m 0,-148.13774 h 34.29878 v 16.0496 H 482.8125 Z m 80.03049,21.39946 h 34.29878 v 16.04959 h -34.29878 z m 40.01524,-21.39946 h 34.29878 v 16.0496 h -34.29878 z m 40.01524,0 h 34.29878 v 16.0496 h -34.29878 z m 0,21.39946 h 34.29878 v 16.04959 h -34.29878 z m -40.01524,0 h 34.29878 v 16.04959 h -34.29878 z m 0,42.79891 h 34.29878 v 16.04959 h -34.29878 z m 40.01524,-21.39945 h 34.29878 v 16.04959 h -34.29878 z m 40.01525,0 h 34.29878 v 16.04959 h -34.29878 z m 0,-42.79892 h 34.29878 v 16.0496 h -34.29878 z m -120.04573,85.59783 h 34.29878 v 16.04959 h -34.29878 z m -40.01525,-42.79891 h 34.29878 v 16.04959 h -34.29878 z m -40.01524,21.39945 h 34.29878 V 460.4628 H 482.8125 Z m 0,21.39946 h 34.29878 v 16.04959 H 482.8125 Z m 40.01524,0 h 34.29878 v 16.04959 h -34.29878 z m 40.01525,21.39946 h 34.29878 v 16.04959 h -34.29878 z m -40.01525,0 h 34.29878 v 16.04959 h -34.29878 z m 80.03049,0 h 34.29878 v 16.04959 h -34.29878 z m 40.01524,-21.39946 h 34.29878 v 16.04959 h -34.29878 z m 0,-21.39946 h 34.29878 v 16.04959 h -34.29878 z m 40.01525,21.39946 h 34.29878 v 16.04959 h -34.29878 z m 0,21.39946 h 34.29878 v 16.04959 H 682.88872 Z M 522.82774,444.41321 h 34.29878 v 16.04959 h -34.29878 z m 40.01525,-21.39945 h 34.29878 v 16.04959 H 562.84299 Z M 522.82774,401.6143 h 34.29878 v 16.04959 h -34.29878 z m -40.01524,0 h 34.29878 v 16.04959 H 482.8125 Z m 0,-148.13774 h 34.29878 v 16.04959 H 482.8125 Z m 80.03049,21.39946 h 34.29878 v 16.04959 h -34.29878 z m 40.01524,-21.39946 h 34.29878 v 16.04959 h -34.29878 z m 40.01524,0 h 34.29878 v 16.04959 h -34.29878 z m 0,21.39946 h 34.29878 v 16.04959 h -34.29878 z m -40.01524,0 h 34.29878 v 16.04959 h -34.29878 z m 0,42.79891 h 34.29878 v 16.04959 h -34.29878 z m 40.01524,-21.39946 h 34.29878 v 16.0496 h -34.29878 z m 40.01525,0 h 34.29878 v 16.0496 h -34.29878 z m 0,-42.79891 h 34.29878 v 16.04959 h -34.29878 z m -120.04573,85.59783 h 34.29878 v 16.04959 h -34.29878 z m -40.01525,-42.79892 h 34.29878 v 16.0496 h -34.29878 z m -40.01524,21.39946 h 34.29878 v 16.04959 H 482.8125 Z m 0,21.39946 h 34.29878 v 16.04959 H 482.8125 Z m 40.01524,0 h 34.29878 v 16.04959 h -34.29878 z m 40.01525,21.39945 h 34.29878 v 16.0496 h -34.29878 z m -40.01525,0 h 34.29878 v 16.0496 h -34.29878 z m 80.03049,0 h 34.29878 v 16.0496 h -34.29878 z m 40.01524,-21.39945 h 34.29878 v 16.04959 h -34.29878 z m 0,-21.39946 h 34.29878 v 16.04959 h -34.29878 z m 40.01525,21.39946 h 34.29878 v 16.04959 h -34.29878 z m 0,21.39945 h 34.29878 v 16.0496 H 682.88872 Z M 522.82774,317.67493 h 34.29878 v 16.04959 h -34.29878 z m 40.01525,-21.39946 h 34.29878 v 16.0496 h -34.29878 z m -40.01525,-21.39945 h 34.29878 v 16.04959 h -34.29878 z m -40.01524,0 h 34.29878 v 16.04959 H 482.8125 Z m 0,-148.13774 h 34.29878 v 16.04959 H 482.8125 Z m 80.03049,21.39946 h 34.29878 v 16.04959 h -34.29878 z m 40.01524,-21.39946 h 34.29878 v 16.04959 h -34.29878 z m 40.01524,0 h 34.29878 v 16.04959 h -34.29878 z m 0,21.39946 h 34.29878 v 16.04959 h -34.29878 z m -40.01524,0 h 34.29878 v 16.04959 h -34.29878 z m 0,42.79891 h 34.29878 v 16.04959 h -34.29878 z m 40.01524,-21.39946 h 34.29878 v 16.0496 h -34.29878 z m 40.01525,0 h 34.29878 v 16.0496 h -34.29878 z m 0,-42.79891 h 34.29878 v 16.04959 h -34.29878 z m -120.04573,85.59783 h 34.29878 v 16.04959 h -34.29878 z m -40.01525,-42.79892 h 34.29878 v 16.0496 h -34.29878 z m -40.01524,21.39946 h 34.29878 v 16.04959 H 482.8125 Z m 0,21.39946 h 34.29878 V 228.3857 H 482.8125 Z m 40.01524,0 h 34.29878 v 16.04959 h -34.29878 z m 40.01525,21.39945 h 34.29878 v 16.0496 h -34.29878 z m -40.01525,0 h 34.29878 v 16.0496 h -34.29878 z m 80.03049,0 h 34.29878 v 16.0496 h -34.29878 z m 40.01524,-21.39945 h 34.29878 v 16.04959 h -34.29878 z m 0,-21.39946 h 34.29878 v 16.04959 h -34.29878 z m 40.01525,21.39946 h 34.29878 v 16.04959 h -34.29878 z m 0,21.39945 h 34.29878 v 16.0496 H 682.88872 Z M 522.82774,190.93665 h 34.29878 v 16.04959 h -34.29878 z m 40.01525,-21.39946 h 34.29878 v 16.0496 h -34.29878 z m -40.01525,-21.39945 h 34.29878 v 16.04959 h -34.29878 z m -40.01524,0 h 34.29878 v 16.04959 H 482.8125 Z M 482.8125,0 h 34.29878 V 16.049592 H 482.8125 Z m 80.03049,21.399456 h 34.29878 V 37.449049 H 562.84299 Z M 602.85823,0 h 34.29878 v 16.049592 h -34.29878 z m 40.01524,0 h 34.29878 v 16.049592 h -34.29878 z m 0,21.399456 h 34.29878 v 16.049593 h -34.29878 z m -40.01524,0 h 34.29878 v 16.049593 h -34.29878 z m 0,42.798913 h 34.29878 v 16.049593 h -34.29878 z m 40.01524,-21.399456 h 34.29878 v 16.049592 h -34.29878 z m 40.01525,0 H 717.1875 V 58.848505 H 682.88872 Z M 682.88872,0 H 717.1875 V 16.049592 H 682.88872 Z M 562.84299,85.597826 h 34.29878 V 101.64742 H 562.84299 Z M 522.82774,42.798913 h 34.29878 V 58.848505 H 522.82774 Z M 482.8125,64.198369 h 34.29878 V 80.247962 H 482.8125 Z m 0,21.399457 h 34.29878 V 101.64742 H 482.8125 Z m 40.01524,0 h 34.29878 v 16.049594 h -34.29878 z m 40.01525,21.399454 h 34.29878 v 16.04959 h -34.29878 z m -40.01525,0 h 34.29878 v 16.04959 h -34.29878 z m 80.03049,0 h 34.29878 v 16.04959 h -34.29878 z m 40.01524,-21.399454 h 34.29878 v 16.049594 h -34.29878 z m 0,-21.399457 h 34.29878 v 16.049593 h -34.29878 z m 40.01525,21.399457 h 34.29878 v 16.049594 h -34.29878 z m 0,21.399454 h 34.29878 v 16.04959 H 682.88872 Z M 522.82774,64.198369 h 34.29878 v 16.049593 h -34.29878 z m 40.01525,-21.399456 h 34.29878 V 58.848505 H 562.84299 Z M 522.82774,21.399456 h 34.29878 v 16.049593 h -34.29878 z m -40.01524,0 h 34.29878 V 37.449049 H 482.8125 Z M 241.40625,506.95312 h 34.29878 v 16.0496 h -34.29878 z m 80.03049,21.39946 h 34.29878 v 16.04959 h -34.29878 z m 40.01524,-21.39946 h 34.29878 v 16.0496 h -34.29878 z m 40.01524,0 H 435.766 v 16.0496 h -34.29878 z m 0,21.39946 H 435.766 v 16.04959 h -34.29878 z m -40.01524,0 h 34.29878 v 16.04959 h -34.29878 z m 0,42.79891 h 34.29878 v 16.0496 h -34.29878 z m 40.01524,-21.39945 H 435.766 v 16.04959 h -34.29878 z m 40.01525,0 h 34.29878 v 16.04959 h -34.29878 z m 0,-42.79892 h 34.29878 v 16.0496 h -34.29878 z m -120.04573,85.59783 h 34.29878 v 16.04959 h -34.29878 z m -40.01525,-42.79891 h 34.29878 v 16.04959 h -34.29878 z m -40.01524,21.39945 h 34.29878 v 16.0496 h -34.29878 z m 0,21.39946 h 34.29878 v 16.04959 h -34.29878 z m 40.01524,0 h 34.29878 v 16.04959 h -34.29878 z m 40.01525,21.39946 h 34.29878 V 630 h -34.29878 z m -40.01525,0 h 34.29878 V 630 h -34.29878 z m 80.03049,0 h 34.29878 V 630 h -34.29878 z m 40.01524,-21.39946 H 435.766 v 16.04959 h -34.29878 z m 0,-21.39946 H 435.766 v 16.0496 h -34.29878 z m 40.01525,21.39946 h 34.29878 v 16.04959 h -34.29878 z m 0,21.39946 h 34.29878 V 630 H 441.48247 Z M 281.42149,571.15149 h 34.29878 v 16.0496 h -34.29878 z m 40.01525,-21.39945 h 34.29878 v 16.04959 h -34.29878 z m -40.01525,-21.39946 h 34.29878 v 16.04959 h -34.29878 z m -40.01524,0 h 34.29878 v 16.04959 h -34.29878 z m 0,-148.13774 h 34.29878 v 16.0496 h -34.29878 z m 80.03049,21.39946 h 34.29878 v 16.04959 h -34.29878 z m 40.01524,-21.39946 h 34.29878 v 16.0496 h -34.29878 z m 40.01524,0 H 435.766 v 16.0496 h -34.29878 z m 0,21.39946 H 435.766 v 16.04959 h -34.29878 z m -40.01524,0 h 34.29878 v 16.04959 h -34.29878 z m 0,42.79891 h 34.29878 v 16.04959 h -34.29878 z m 40.01524,-21.39945 H 435.766 v 16.04959 h -34.29878 z m 40.01525,0 h 34.29878 v 16.04959 h -34.29878 z m 0,-42.79892 h 34.29878 v 16.0496 h -34.29878 z m -120.04573,85.59783 h 34.29878 v 16.04959 h -34.29878 z m -40.01525,-42.79891 h 34.29878 v 16.04959 h -34.29878 z m -40.01524,21.39945 h 34.29878 v 16.04959 h -34.29878 z m 0,21.39946 h 34.29878 v 16.04959 h -34.29878 z m 40.01524,0 h 34.29878 v 16.04959 h -34.29878 z m 40.01525,21.39946 h 34.29878 v 16.04959 h -34.29878 z m -40.01525,0 h 34.29878 v 16.04959 h -34.29878 z m 80.03049,0 h 34.29878 v 16.04959 h -34.29878 z m 40.01524,-21.39946 H 435.766 v 16.04959 h -34.29878 z m 0,-21.39946 H 435.766 v 16.04959 h -34.29878 z m 40.01525,21.39946 h 34.29878 v 16.04959 h -34.29878 z m 0,21.39946 h 34.29878 v 16.04959 H 441.48247 Z M 281.42149,444.41321 h 34.29878 v 16.04959 h -34.29878 z m 40.01525,-21.39945 h 34.29878 v 16.04959 H 321.43674 Z M 281.42149,401.6143 h 34.29878 v 16.04959 h -34.29878 z m -40.01524,0 h 34.29878 v 16.04959 h -34.29878 z m 0,-148.13774 h 34.29878 v 16.04959 h -34.29878 z m 80.03049,21.39946 h 34.29878 v 16.04959 h -34.29878 z m 40.01524,-21.39946 h 34.29878 v 16.04959 h -34.29878 z m 40.01524,0 H 435.766 v 16.04959 h -34.29878 z m 0,21.39946 H 435.766 v 16.04959 h -34.29878 z m -40.01524,0 h 34.29878 v 16.04959 h -34.29878 z m 0,42.79891 h 34.29878 v 16.04959 h -34.29878 z m 40.01524,-21.39946 H 435.766 v 16.0496 h -34.29878 z m 40.01525,0 h 34.29878 v 16.0496 h -34.29878 z m 0,-42.79891 h 34.29878 v 16.04959 h -34.29878 z m -120.04573,85.59783 h 34.29878 v 16.04959 h -34.29878 z m -40.01525,-42.79892 h 34.29878 v 16.0496 h -34.29878 z m -40.01524,21.39946 h 34.29878 v 16.04959 h -34.29878 z m 0,21.39946 h 34.29878 v 16.04959 h -34.29878 z m 40.01524,0 h 34.29878 v 16.04959 h -34.29878 z m 40.01525,21.39945 h 34.29878 v 16.0496 h -34.29878 z m -40.01525,0 h 34.29878 v 16.0496 h -34.29878 z m 80.03049,0 h 34.29878 v 16.0496 h -34.29878 z m 40.01524,-21.39945 H 435.766 v 16.04959 h -34.29878 z m 0,-21.39946 H 435.766 v 16.04959 h -34.29878 z m 40.01525,21.39946 h 34.29878 v 16.04959 h -34.29878 z m 0,21.39945 h 34.29878 v 16.0496 H 441.48247 Z M 281.42149,317.67493 h 34.29878 v 16.04959 h -34.29878 z m 40.01525,-21.39946 h 34.29878 v 16.0496 h -34.29878 z m -40.01525,-21.39945 h 34.29878 v 16.04959 h -34.29878 z m -40.01524,0 h 34.29878 v 16.04959 h -34.29878 z m 0,-148.13774 h 34.29878 v 16.04959 h -34.29878 z m 80.03049,21.39946 h 34.29878 v 16.04959 h -34.29878 z m 40.01524,-21.39946 h 34.29878 v 16.04959 h -34.29878 z m 40.01524,0 H 435.766 v 16.04959 h -34.29878 z m 0,21.39946 H 435.766 v 16.04959 h -34.29878 z m -40.01524,0 h 34.29878 v 16.04959 h -34.29878 z m 0,42.79891 h 34.29878 v 16.04959 h -34.29878 z m 40.01524,-21.39946 H 435.766 v 16.0496 h -34.29878 z m 40.01525,0 h 34.29878 v 16.0496 h -34.29878 z m 0,-42.79891 h 34.29878 v 16.04959 h -34.29878 z m -120.04573,85.59783 h 34.29878 v 16.04959 h -34.29878 z m -40.01525,-42.79892 h 34.29878 v 16.0496 h -34.29878 z m -40.01524,21.39946 h 34.29878 v 16.04959 h -34.29878 z m 0,21.39946 h 34.29878 v 16.04959 h -34.29878 z m 40.01524,0 h 34.29878 v 16.04959 h -34.29878 z m 40.01525,21.39945 h 34.29878 v 16.0496 h -34.29878 z m -40.01525,0 h 34.29878 v 16.0496 h -34.29878 z m 80.03049,0 h 34.29878 v 16.0496 h -34.29878 z m 40.01524,-21.39945 H 435.766 v 16.04959 h -34.29878 z m 0,-21.39946 H 435.766 v 16.04959 h -34.29878 z m 40.01525,21.39946 h 34.29878 v 16.04959 h -34.29878 z m 0,21.39945 h 34.29878 v 16.0496 H 441.48247 Z M 281.42149,190.93665 h 34.29878 v 16.04959 h -34.29878 z m 40.01525,-21.39946 h 34.29878 v 16.0496 h -34.29878 z m -40.01525,-21.39945 h 34.29878 v 16.04959 h -34.29878 z m -40.01524,0 h 34.29878 v 16.04959 H 241.40625 Z M 241.40625,0 h 34.29878 v 16.049592 h -34.29878 z m 80.03049,21.399456 h 34.29878 V 37.449049 H 321.43674 Z M 361.45198,0 h 34.29878 v 16.049592 h -34.29878 z m 40.01524,0 H 435.766 v 16.049592 h -34.29878 z m 0,21.399456 H 435.766 v 16.049593 h -34.29878 z m -40.01524,0 h 34.29878 v 16.049593 h -34.29878 z m 0,42.798913 h 34.29878 V 80.247962 H 361.45198 Z M 401.46722,42.798913 H 435.766 v 16.049592 h -34.29878 z m 40.01525,0 h 34.29878 V 58.848505 H 441.48247 Z M 441.48247,0 h 34.29878 V 16.049592 H 441.48247 Z M 321.43674,85.597826 h 34.29878 V 101.64742 H 321.43674 Z M 281.42149,42.798913 h 34.29878 v 16.049592 h -34.29878 z m -40.01524,21.399456 h 34.29878 v 16.049593 h -34.29878 z m 0,21.399457 h 34.29878 v 16.049594 h -34.29878 z m 40.01524,0 h 34.29878 v 16.049594 h -34.29878 z m 40.01525,21.399454 h 34.29878 v 16.04959 h -34.29878 z m -40.01525,0 h 34.29878 v 16.04959 h -34.29878 z m 80.03049,0 h 34.29878 v 16.04959 H 361.45198 Z M 401.46722,85.597826 H 435.766 v 16.049594 h -34.29878 z m 0,-21.399457 H 435.766 v 16.049593 h -34.29878 z m 40.01525,21.399457 h 34.29878 v 16.049594 h -34.29878 z m 0,21.399454 h 34.29878 v 16.04959 H 441.48247 Z M 281.42149,64.198369 h 34.29878 v 16.049593 h -34.29878 z m 40.01525,-21.399456 h 34.29878 V 58.848505 H 321.43674 Z M 281.42149,21.399456 h 34.29878 v 16.049593 h -34.29878 z m -40.01524,0 h 34.29878 V 37.449049 H 241.40625 Z M 0,506.95312 h 34.29878 v 16.0496 H 0 Z m 80.03049,21.39946 h 34.29878 v 16.04959 H 80.03049 Z m 40.01524,-21.39946 h 34.29878 v 16.0496 h -34.29878 z m 40.01525,0 h 34.29878 v 16.0496 h -34.29878 z m 0,21.39946 h 34.29878 v 16.04959 h -34.29878 z m -40.01525,0 h 34.29878 v 16.04959 h -34.29878 z m 0,42.79891 h 34.29878 v 16.0496 h -34.29878 z m 40.01525,-21.39945 h 34.29878 v 16.04959 h -34.29878 z m 40.01524,0 H 234.375 v 16.04959 h -34.29878 z m 0,-42.79892 H 234.375 v 16.0496 H 200.07622 Z M 80.03049,592.55095 h 34.29878 v 16.04959 H 80.03049 Z M 40.015244,549.75204 h 34.298783 v 16.04959 H 40.015244 Z M 0,571.15149 h 34.29878 v 16.0496 H 0 Z m 0,21.39946 h 34.29878 v 16.04959 H 0 Z m 40.015244,0 h 34.298783 v 16.04959 H 40.015244 Z m 40.015246,21.39946 h 34.29878 V 630 H 80.03049 Z m -40.015246,0 H 74.314027 V 630 H 40.015244 Z m 80.030486,0 h 34.29878 V 630 h -34.29878 z m 40.01525,-21.39946 h 34.29878 v 16.04959 h -34.29878 z m 0,-21.39946 h 34.29878 v 16.0496 h -34.29878 z m 40.01524,21.39946 H 234.375 v 16.04959 h -34.29878 z m 0,21.39946 H 234.375 V 630 H 200.07622 Z M 40.015244,571.15149 h 34.298783 v 16.0496 H 40.015244 Z M 80.03049,549.75204 h 34.29878 v 16.04959 H 80.03049 Z M 40.015244,528.35258 h 34.298783 v 16.04959 H 40.015244 Z M 0,528.35258 h 34.29878 v 16.04959 H 0 Z M 0,380.21484 h 34.29878 v 16.0496 H 0 Z m 80.03049,21.39946 h 34.29878 v 16.04959 H 80.03049 Z m 40.01524,-21.39946 h 34.29878 v 16.0496 h -34.29878 z m 40.01525,0 h 34.29878 v 16.0496 h -34.29878 z m 0,21.39946 h 34.29878 v 16.04959 h -34.29878 z m -40.01525,0 h 34.29878 v 16.04959 h -34.29878 z m 0,42.79891 h 34.29878 v 16.04959 h -34.29878 z m 40.01525,-21.39945 h 34.29878 v 16.04959 h -34.29878 z m 40.01524,0 H 234.375 v 16.04959 h -34.29878 z m 0,-42.79892 H 234.375 v 16.0496 H 200.07622 Z M 80.03049,465.81267 h 34.29878 v 16.04959 H 80.03049 Z M 40.015244,423.01376 h 34.298783 v 16.04959 H 40.015244 Z M 0,444.41321 H 34.29878 V 460.4628 H 0 Z m 0,21.39946 h 34.29878 v 16.04959 H 0 Z m 40.015244,0 h 34.298783 v 16.04959 H 40.015244 Z m 40.015246,21.39946 h 34.29878 v 16.04959 H 80.03049 Z m -40.015246,0 h 34.298783 v 16.04959 H 40.015244 Z m 80.030486,0 h 34.29878 v 16.04959 h -34.29878 z m 40.01525,-21.39946 h 34.29878 v 16.04959 h -34.29878 z m 0,-21.39946 h 34.29878 v 16.04959 h -34.29878 z m 40.01524,21.39946 H 234.375 v 16.04959 h -34.29878 z m 0,21.39946 H 234.375 v 16.04959 H 200.07622 Z M 40.015244,444.41321 H 74.314027 V 460.4628 H 40.015244 Z M 80.03049,423.01376 h 34.29878 v 16.04959 H 80.03049 Z M 40.015244,401.6143 h 34.298783 v 16.04959 H 40.015244 Z M 0,401.6143 h 34.29878 v 16.04959 H 0 Z M 0,253.47656 h 34.29878 v 16.04959 H 0 Z m 80.03049,21.39946 h 34.29878 v 16.04959 H 80.03049 Z m 40.01524,-21.39946 h 34.29878 v 16.04959 h -34.29878 z m 40.01525,0 h 34.29878 v 16.04959 h -34.29878 z m 0,21.39946 h 34.29878 v 16.04959 h -34.29878 z m -40.01525,0 h 34.29878 v 16.04959 h -34.29878 z m 0,42.79891 h 34.29878 v 16.04959 h -34.29878 z m 40.01525,-21.39946 h 34.29878 v 16.0496 h -34.29878 z m 40.01524,0 H 234.375 v 16.0496 h -34.29878 z m 0,-42.79891 H 234.375 v 16.04959 H 200.07622 Z M 80.03049,339.07439 h 34.29878 v 16.04959 H 80.03049 Z M 40.015244,296.27547 h 34.298783 v 16.0496 H 40.015244 Z M 0,317.67493 h 34.29878 v 16.04959 H 0 Z m 0,21.39946 h 34.29878 v 16.04959 H 0 Z m 40.015244,0 h 34.298783 v 16.04959 H 40.015244 Z m 40.015246,21.39945 h 34.29878 v 16.0496 H 80.03049 Z m -40.015246,0 h 34.298783 v 16.0496 H 40.015244 Z m 80.030486,0 h 34.29878 v 16.0496 h -34.29878 z m 40.01525,-21.39945 h 34.29878 v 16.04959 h -34.29878 z m 0,-21.39946 h 34.29878 v 16.04959 h -34.29878 z m 40.01524,21.39946 H 234.375 v 16.04959 h -34.29878 z m 0,21.39945 H 234.375 v 16.0496 H 200.07622 Z M 40.015244,317.67493 h 34.298783 v 16.04959 H 40.015244 Z M 80.03049,296.27547 h 34.29878 v 16.0496 H 80.03049 Z M 40.015244,274.87602 h 34.298783 v 16.04959 H 40.015244 Z M 0,274.87602 h 34.29878 v 16.04959 H 0 Z M 0,126.73828 h 34.29878 v 16.04959 H 0 Z m 80.03049,21.39946 h 34.29878 v 16.04959 H 80.03049 Z m 40.01524,-21.39946 h 34.29878 v 16.04959 h -34.29878 z m 40.01525,0 h 34.29878 v 16.04959 h -34.29878 z m 0,21.39946 h 34.29878 v 16.04959 h -34.29878 z m -40.01525,0 h 34.29878 v 16.04959 h -34.29878 z m 0,42.79891 h 34.29878 v 16.04959 h -34.29878 z m 40.01525,-21.39946 h 34.29878 v 16.0496 h -34.29878 z m 40.01524,0 H 234.375 v 16.0496 h -34.29878 z m 0,-42.79891 H 234.375 v 16.04959 H 200.07622 Z M 80.03049,212.33611 h 34.29878 V 228.3857 H 80.03049 Z M 40.015244,169.53719 h 34.298783 v 16.0496 H 40.015244 Z M 0,190.93665 h 34.29878 v 16.04959 H 0 Z m 0,21.39946 H 34.29878 V 228.3857 H 0 Z m 40.015244,0 H 74.314027 V 228.3857 H 40.015244 Z m 40.015246,21.39945 h 34.29878 v 16.0496 H 80.03049 Z m -40.015246,0 h 34.298783 v 16.0496 H 40.015244 Z m 80.030486,0 h 34.29878 v 16.0496 h -34.29878 z m 40.01525,-21.39945 h 34.29878 v 16.04959 h -34.29878 z m 0,-21.39946 h 34.29878 v 16.04959 h -34.29878 z m 40.01524,21.39946 H 234.375 v 16.04959 h -34.29878 z m 0,21.39945 H 234.375 v 16.0496 H 200.07622 Z M 40.015244,190.93665 h 34.298783 v 16.04959 H 40.015244 Z M 80.03049,169.53719 h 34.29878 v 16.0496 H 80.03049 Z M 40.015244,148.13774 h 34.298783 v 16.04959 H 40.015244 Z M 0,148.13774 h 34.29878 v 16.04959 H 0 Z M 0,0 H 34.29878 V 16.049592 H 0 Z m 80.03049,21.399456 h 34.29878 V 37.449049 H 80.03049 Z M 120.04573,0 h 34.29878 v 16.049592 h -34.29878 z m 40.01525,0 h 34.29878 v 16.049592 h -34.29878 z m 0,21.399456 h 34.29878 v 16.049593 h -34.29878 z m -40.01525,0 h 34.29878 v 16.049593 h -34.29878 z m 0,42.798913 h 34.29878 v 16.049593 h -34.29878 z m 40.01525,-21.399456 h 34.29878 v 16.049592 h -34.29878 z m 40.01524,0 H 234.375 V 58.848505 H 200.07622 Z M 200.07622,0 H 234.375 V 16.049592 H 200.07622 Z M 80.03049,85.597826 h 34.29878 V 101.64742 H 80.03049 Z M 40.015244,42.798913 H 74.314027 V 58.848505 H 40.015244 Z M 0,64.198369 H 34.29878 V 80.247962 H 0 Z M 0,85.597826 H 34.29878 V 101.64742 H 0 Z m 40.015244,0 H 74.314027 V 101.64742 H 40.015244 Z M 80.03049,106.99728 h 34.29878 v 16.04959 H 80.03049 Z m -40.015246,0 h 34.298783 v 16.04959 H 40.015244 Z m 80.030486,0 h 34.29878 v 16.04959 h -34.29878 z m 40.01525,-21.399454 h 34.29878 v 16.049594 h -34.29878 z m 0,-21.399457 h 34.29878 v 16.049593 h -34.29878 z m 40.01524,21.399457 H 234.375 v 16.049594 h -34.29878 z m 0,21.399454 H 234.375 v 16.04959 H 200.07622 Z M 40.015244,64.198369 H 74.314027 V 80.247962 H 40.015244 Z M 80.03049,42.798913 h 34.29878 V 58.848505 H 80.03049 Z M 40.015244,21.399456 H 74.314027 V 37.449049 H 40.015244 Z M 0,21.399456 H 34.29878 V 37.449049 H 0 Z M 0,0 H 34.29878 V 16.049592 H 0 Z m 80.03049,21.399456 h 34.29878 V 37.449049 H 80.03049 Z M 120.04573,0 h 34.29878 v 16.049592 h -34.29878 z m 40.01525,0 h 34.29878 v 16.049592 h -34.29878 z m 0,21.399456 h 34.29878 v 16.049593 h -34.29878 z m -40.01525,0 h 34.29878 v 16.049593 h -34.29878 z m 0,42.798913 h 34.29878 v 16.049593 h -34.29878 z m 40.01525,-21.399456 h 34.29878 v 16.049592 h -34.29878 z m 40.01524,0 H 234.375 V 58.848505 H 200.07622 Z M 200.07622,0 H 234.375 V 16.049592 H 200.07622 Z M 80.03049,85.597826 h 34.29878 V 101.64742 H 80.03049 Z M 40.015244,42.798913 H 74.314027 V 58.848505 H 40.015244 Z M 0,64.198369 H 34.29878 V 80.247962 H 0 Z M 0,85.597826 H 34.29878 V 101.64742 H 0 Z m 40.015244,0 H 74.314027 V 101.64742 H 40.015244 Z M 80.03049,106.99728 h 34.29878 v 16.04959 H 80.03049 Z m -40.015246,0 h 34.298783 v 16.04959 H 40.015244 Z m 80.030486,0 h 34.29878 v 16.04959 h -34.29878 z m 40.01525,-21.399454 h 34.29878 v 16.049594 h -34.29878 z m 0,-21.399457 h 34.29878 v 16.049593 h -34.29878 z m 40.01524,21.399457 H 234.375 v 16.049594 h -34.29878 z m 0,21.399454 H 234.375 v 16.04959 H 200.07622 Z M 40.015244,64.198369 H 74.314027 V 80.247962 H 40.015244 Z M 80.03049,42.798913 h 34.29878 V 58.848505 H 80.03049 Z M 40.015244,21.399456 H 74.314027 V 37.449049 H 40.015244 Z M 0,21.399456 H 34.29878 V 37.449049 H 0 Z M 0,0 H 34.29878 V 16.049592 H 0 Z m 80.03049,21.399456 h 34.29878 V 37.449049 H 80.03049 Z M 120.04573,0 h 34.29878 v 16.049592 h -34.29878 z m 40.01525,0 h 34.29878 v 16.049592 h -34.29878 z m 0,21.399456 h 34.29878 v 16.049593 h -34.29878 z m -40.01525,0 h 34.29878 v 16.049593 h -34.29878 z m 0,42.798913 h 34.29878 v 16.049593 h -34.29878 z m 40.01525,-21.399456 h 34.29878 v 16.049592 h -34.29878 z m 40.01524,0 H 234.375 V 58.848505 H 200.07622 Z M 200.07622,0 H 234.375 V 16.049592 H 200.07622 Z M 80.03049,85.597826 h 34.29878 V 101.64742 H 80.03049 Z M 40.015244,42.798913 H 74.314027 V 58.848505 H 40.015244 Z M 0,64.198369 H 34.29878 V 80.247962 H 0 Z M 0,85.597826 H 34.29878 V 101.64742 H 0 Z m 40.015244,0 H 74.314027 V 101.64742 H 40.015244 Z M 80.03049,106.99728 h 34.29878 v 16.04959 H 80.03049 Z m -40.015246,0 h 34.298783 v 16.04959 H 40.015244 Z m 80.030486,0 h 34.29878 v 16.04959 h -34.29878 z m 40.01525,-21.399454 h 34.29878 v 16.049594 h -34.29878 z m 0,-21.399457 h 34.29878 v 16.049593 h -34.29878 z m 40.01524,21.399457 H 234.375 v 16.049594 h -34.29878 z m 0,21.399454 H 234.375 v 16.04959 H 200.07622 Z M 40.015244,64.198369 H 74.314027 V 80.247962 H 40.015244 Z M 80.03049,42.798913 h 34.29878 V 58.848505 H 80.03049 Z M 40.015244,21.399456 H 74.314027 V 37.449049 H 40.015244 Z M 0,21.399456 H 34.29878 V 37.449049 H 0 Z" /><g
     id="g273"
     transform="matrix(3.0927368,0,0,3.0927368,507.2179,115.48866)"
     style="stroke-width:1.22207"><g
       style="fill:url(#f);fill-opacity:1;stroke:none;stroke-width:1.22207;stroke-opacity:1"
       transform="matrix(0.0232,0,0,0.0232,30,3.947)"
       id="g11">
    <path
   d="m 718.11,1697.01 v 854.17 l -188.976,188.98 v -854.18 z"
   style="fill:url(#linearGradient273);fill-opacity:1;stroke:none;stroke-width:1.22207;stroke-opacity:1"
   id="path10" />
    <path
   d="m -529.134,1885.98 v 854.18 L -718.11,2551.18 v -854.17 z"
   style="fill:url(#g);fill-opacity:1;stroke:none;stroke-width:1.22207;stroke-opacity:1"
   id="path11" />
  </g><path
       d="m 165.395,69.196 v 19.825 l -7.895,7.895 -7.895,-7.895 V 69.196 l 7.895,7.895 z"
       style="fill:url(#i);fill-opacity:1;stroke:none;stroke-width:0.0283631"
       transform="translate(-127.5,-17.091)"
       id="path12" /><g
       style="fill:url(#j);fill-opacity:1;stroke:none;stroke-width:1.22207"
       transform="matrix(0.0232,0,0,0.0232,30,3.947)"
       id="g16">
    <path
   d="M 0,1976.69 1073.39,903.307 1292.6,1122.52 0,2415.12 -1292.6,1122.52 -1073.39,903.307 Z"
   style="fill:url(#linearGradient274);fill-opacity:1;stroke:none;stroke-width:1.22207"
   id="path13" />
    <g
   style="fill:url(#l);fill-opacity:1;stroke:none;stroke-width:1.22207"
   id="g15">
      <path
   d="M 0,540.472 582.047,1122.52 0,1704.57 -582.047,1122.52 Z"
   style="fill:url(#linearGradient275);fill-opacity:1;stroke:none;stroke-width:1.22207"
   id="path14" />
      <path
   d="M 0,275.906 -714.331,990.236 -937.323,767.244 0,-170.079 937.323,767.244 714.331,990.236 Z"
   style="fill:url(#k);fill-opacity:1;stroke:none;stroke-width:1.22207"
   id="path15" />
    </g>
  </g></g><text
     xml:space="preserve"
     style="font-size:72px;font-family:Seravek;-inkscape-font-specification:Seravek;text-align:start;writing-mode:lr-tb;direction:ltr;text-anchor:start;fill:url(#linearGradient277);stroke:none;stroke-linecap:round;stroke-linejoin:round"
     x="392.67606"
     y="470.25162"
     id="text275"><tspan
       sodipodi:role="line"
       id="tspan275"
       x="392.67606"
       y="470.25162"
       style="font-style:normal;font-variant:normal;font-weight:500;font-stretch:normal;font-family:Seravek;-inkscape-font-specification:'Seravek Medium';fill:url(#linearGradient277)">ActivityRank</tspan></text></svg>
